<svg width="721" height="73" viewBox="0 0 721 73" fill="none" xmlns="http://www.w3.org/2000/svg">
<path d="M14.4886 71H0.988636L37.1591 1.18182H52.7727L65.7955 71H52.2955L42.9205 15.5H42.375L14.4886 71ZM19.4659 43.625H56.2841L54.5795 53.7841H17.7614L19.4659 43.625ZM143.957 1.18182L132.366 71H121.116L96.1278 23.4432H95.5824L87.6392 71H74.9915L86.5824 1.18182H97.9006L122.855 48.7727H123.503L131.378 1.18182H143.957ZM200.761 23.4773C200.511 21.6364 200.057 19.9886 199.398 18.5341C198.739 17.0568 197.852 15.8068 196.739 14.7841C195.625 13.7386 194.273 12.9432 192.682 12.3977C191.091 11.8523 189.239 11.5795 187.125 11.5795C183.375 11.5795 179.818 12.5227 176.455 14.4091C173.091 16.2955 170.216 19.0682 167.83 22.7273C165.443 26.3636 163.818 30.7955 162.955 36.0227C162.091 41.2955 162.136 45.7614 163.091 49.4205C164.045 53.0795 165.795 55.8636 168.341 57.7727C170.909 59.6591 174.136 60.6023 178.023 60.6023C181.591 60.6023 184.83 59.9205 187.739 58.5568C190.648 57.1932 193.057 55.2614 194.966 52.7614C196.898 50.2386 198.125 47.2841 198.648 43.8977L201.443 44.3409H182.455L184.159 34.4545H212.489L211.057 42.8409C210.08 48.8409 207.955 54.0227 204.682 58.3864C201.432 62.7273 197.375 66.0795 192.511 68.4432C187.67 70.7841 182.364 71.9545 176.591 71.9545C170.182 71.9545 164.784 70.5114 160.398 67.625C156.034 64.7159 152.943 60.5909 151.125 55.25C149.307 49.8864 149.011 43.5227 150.239 36.1591C151.148 30.5227 152.761 25.4886 155.08 21.0568C157.42 16.625 160.284 12.8636 163.67 9.77272C167.08 6.65909 170.864 4.29545 175.023 2.68182C179.182 1.04545 183.545 0.22727 188.114 0.22727C191.955 0.22727 195.455 0.795452 198.614 1.93182C201.773 3.04545 204.477 4.63636 206.727 6.70455C209 8.77273 210.739 11.2273 211.943 14.0682C213.148 16.9091 213.716 20.0455 213.648 23.4773H200.761ZM218.616 71L230.207 1.18182H275.616L273.844 11.7841H241.082L237.946 30.7386H268.355L266.582 41.3409H236.173L233.037 60.3977H266.071L264.298 71H218.616ZM276.929 71L288.52 1.18182H301.168L291.349 60.3977H322.099L320.327 71H276.929ZM342.895 71H329.395L365.565 1.18182H381.179L394.202 71H380.702L371.327 15.5H370.781L342.895 71ZM347.872 43.625H384.69L382.986 53.7841H346.168L347.872 43.625ZM496.176 1.18182L484.585 71H473.335L448.347 23.4432H447.801L439.858 71H427.21L438.801 1.18182H450.119L475.074 48.7727H475.722L483.597 1.18182H496.176ZM498.366 71L509.957 1.18182H522.605L517.321 33.2614H518.173L550.696 1.18182H566.139L533.991 32.5114L554.787 71H539.582L523.832 41.0682L514.491 50.2727L511.014 71H498.366ZM627.631 36.9091C626.403 44.3182 623.983 50.6364 620.369 55.8636C616.778 61.0682 612.392 65.0568 607.21 67.8295C602.051 70.5795 596.494 71.9545 590.54 71.9545C584.29 71.9545 578.926 70.5 574.449 67.5909C569.972 64.6591 566.744 60.4659 564.767 55.0114C562.813 49.5568 562.472 43.0114 563.744 35.375C564.972 27.9886 567.381 21.6705 570.972 16.4205C574.563 11.1705 578.96 7.15909 584.165 4.38636C589.369 1.61363 594.983 0.22727 601.006 0.22727C607.21 0.22727 612.528 1.69318 616.96 4.625C621.415 7.53409 624.619 11.7273 626.574 17.2045C628.551 22.6818 628.903 29.25 627.631 36.9091ZM615.188 35.375C616.028 30.2159 615.949 25.8636 614.949 22.3182C613.972 18.7727 612.233 16.1023 609.733 14.3068C607.233 12.4886 604.153 11.5795 600.494 11.5795C596.54 11.5795 592.881 12.5682 589.517 14.5455C586.176 16.5 583.335 19.3636 580.994 23.1364C578.676 26.9091 577.085 31.5 576.222 36.9091C575.313 42.0909 575.369 46.4432 576.392 49.9659C577.415 53.4886 579.188 56.1477 581.71 57.9432C584.233 59.7159 587.313 60.6023 590.949 60.6023C594.881 60.6023 598.517 59.625 601.858 57.6705C605.199 55.7159 608.028 52.8636 610.347 49.1136C612.688 45.3636 614.301 40.7841 615.188 35.375ZM680.19 20.7159C680.281 17.5568 679.315 15.1364 677.293 13.4545C675.293 11.7727 672.418 10.9318 668.668 10.9318C666.031 10.9318 663.702 11.3295 661.679 12.125C659.679 12.8977 658.065 13.9773 656.838 15.3636C655.611 16.7273 654.849 18.2841 654.554 20.0341C654.304 21.4659 654.429 22.7159 654.929 23.7841C655.429 24.8523 656.19 25.7614 657.213 26.5114C658.259 27.2614 659.44 27.8864 660.759 28.3864C662.099 28.8864 663.463 29.3068 664.849 29.6477L671.122 31.2841C673.622 31.8977 676.009 32.7273 678.281 33.7727C680.554 34.7955 682.52 36.1136 684.179 37.7273C685.861 39.3182 687.088 41.2386 687.861 43.4886C688.634 45.7386 688.759 48.375 688.236 51.3977C687.554 55.4886 685.906 59.0909 683.293 62.2045C680.702 65.2955 677.293 67.7159 673.065 69.4659C668.861 71.1932 663.963 72.0568 658.372 72.0568C652.963 72.0568 648.395 71.2159 644.668 69.5341C640.94 67.8295 638.213 65.3636 636.486 62.1364C634.781 58.9091 634.236 54.9886 634.849 50.375H647.293C647.043 52.8068 647.44 54.8295 648.486 56.4432C649.554 58.0568 651.088 59.2614 653.088 60.0568C655.088 60.8523 657.406 61.25 660.043 61.25C662.793 61.25 665.281 60.8409 667.509 60.0227C669.736 59.1818 671.554 58.0227 672.963 56.5455C674.395 55.0455 675.27 53.2955 675.588 51.2955C675.906 49.5 675.645 48 674.804 46.7955C673.963 45.5909 672.656 44.5909 670.884 43.7955C669.134 42.9773 667.043 42.25 664.611 41.6136L657.043 39.5682C651.565 38.0682 647.406 35.8182 644.565 32.8182C641.747 29.8182 640.747 25.8182 641.565 20.8182C642.247 16.6818 643.963 13.0795 646.713 10.0114C649.463 6.92045 652.906 4.52273 657.043 2.81818C661.179 1.09091 665.702 0.22727 670.611 0.22727C675.565 0.22727 679.759 1.09091 683.19 2.81818C686.645 4.54545 689.168 6.95454 690.759 10.0455C692.372 13.1136 692.906 16.6705 692.361 20.7159H680.19ZM720.511 1.18182L708.92 71H696.273L707.864 1.18182H720.511Z" fill="white"/>
<path d="M14.4886 71V72H15.1053L15.3822 71.449L14.4886 71ZM0.988636 71L0.100718 70.54L-0.65566 72H0.988636V71ZM37.1591 1.18182V0.181816H36.5509L36.2712 0.721815L37.1591 1.18182ZM52.7727 1.18182L53.7558 0.998455L53.6035 0.181816H52.7727V1.18182ZM65.7955 71V72H66.9992L66.7785 70.8166L65.7955 71ZM52.2955 71L51.3094 71.1666L51.4502 72H52.2955V71ZM42.9205 15.5L43.9065 15.3334L43.7657 14.5H42.9205V15.5ZM42.375 15.5V14.5H41.7583L41.4815 15.051L42.375 15.5ZM19.4659 43.625V42.625H18.6197L18.4797 43.4595L19.4659 43.625ZM56.2841 43.625L57.2703 43.7905L57.4659 42.625H56.2841V43.625ZM54.5795 53.7841V54.7841H55.4257L55.5658 53.9496L54.5795 53.7841ZM17.7614 53.7841L16.7751 53.6186L16.5796 54.7841H17.7614V53.7841ZM14.4886 70H0.988636V72H14.4886V70ZM1.87655 71.46L38.047 1.64182L36.2712 0.721815L0.100718 70.54L1.87655 71.46ZM37.1591 2.18182H52.7727V0.181816H37.1591V2.18182ZM51.7897 1.36518L64.8124 71.1834L66.7785 70.8166L53.7558 0.998455L51.7897 1.36518ZM65.7955 70H52.2955V72H65.7955V70ZM53.2815 70.8334L43.9065 15.3334L41.9344 15.6666L51.3094 71.1666L53.2815 70.8334ZM42.9205 14.5H42.375V16.5H42.9205V14.5ZM41.4815 15.051L13.5951 70.551L15.3822 71.449L43.2685 15.949L41.4815 15.051ZM19.4659 44.625H56.2841V42.625H19.4659V44.625ZM55.2979 43.4595L53.5933 53.6186L55.5658 53.9496L57.2703 43.7905L55.2979 43.4595ZM54.5795 52.7841H17.7614V54.7841H54.5795V52.7841ZM18.7476 53.9496L20.4521 43.7905L18.4797 43.4595L16.7751 53.6186L18.7476 53.9496ZM143.957 1.18182L144.944 1.34559L145.137 0.181816H143.957V1.18182ZM132.366 71V72H133.214L133.353 71.1638L132.366 71ZM121.116 71L120.231 71.4651L120.512 72H121.116V71ZM96.1278 23.4432L97.0131 22.978L96.732 22.4432H96.1278V23.4432ZM95.5824 23.4432V22.4432H94.7356L94.596 23.2784L95.5824 23.4432ZM87.6392 71V72H88.486L88.6255 71.1647L87.6392 71ZM74.9915 71L74.005 70.8362L73.8118 72H74.9915V71ZM86.5824 1.18182V0.181816H85.7347L85.5959 1.01804L86.5824 1.18182ZM97.9006 1.18182L98.7862 0.71743L98.5053 0.181816H97.9006V1.18182ZM122.855 48.7727L121.969 49.2371L122.25 49.7727H122.855V48.7727ZM123.503 48.7727V49.7727H124.351L124.489 48.936L123.503 48.7727ZM131.378 1.18182V0.181816H130.53L130.391 1.01856L131.378 1.18182ZM142.971 1.01804L131.38 70.8362L133.353 71.1638L144.944 1.34559L142.971 1.01804ZM132.366 70H121.116V72H132.366V70ZM122.002 70.5349L97.0131 22.978L95.2426 23.9083L120.231 71.4651L122.002 70.5349ZM96.1278 22.4432H95.5824V24.4432H96.1278V22.4432ZM94.596 23.2784L86.6529 70.8353L88.6255 71.1647L96.5687 23.6079L94.596 23.2784ZM87.6392 70H74.9915V72H87.6392V70ZM75.978 71.1638L87.5689 1.34559L85.5959 1.01804L74.005 70.8362L75.978 71.1638ZM86.5824 2.18182H97.9006V0.181816H86.5824V2.18182ZM97.0149 1.6462L121.969 49.2371L123.741 48.3083L98.7862 0.71743L97.0149 1.6462ZM122.855 49.7727H123.503V47.7727H122.855V49.7727ZM124.489 48.936L132.364 1.34507L130.391 1.01856L122.516 48.6095L124.489 48.936ZM131.378 2.18182H143.957V0.181816H131.378V2.18182ZM200.761 23.4773L199.77 23.6118L199.888 24.4773H200.761V23.4773ZM199.398 18.5341L198.484 18.9415L198.487 18.9468L199.398 18.5341ZM196.739 14.7841L196.054 15.5132L196.062 15.5206L196.739 14.7841ZM192.682 12.3977L193.006 11.4518L193.006 11.4518L192.682 12.3977ZM176.455 14.4091L176.944 15.2813L176.944 15.2813L176.455 14.4091ZM167.83 22.7273L168.666 23.2759L168.667 23.2735L167.83 22.7273ZM162.955 36.0227L161.968 35.8597L161.968 35.8611L162.955 36.0227ZM163.091 49.4205L162.123 49.6729L162.123 49.6729L163.091 49.4205ZM168.341 57.7727L167.741 58.5728L167.749 58.5787L168.341 57.7727ZM187.739 58.5568L187.314 57.6514L187.314 57.6514L187.739 58.5568ZM194.966 52.7614L194.172 52.1534L194.171 52.1545L194.966 52.7614ZM198.648 43.8977L198.804 42.9101L197.813 42.7528L197.659 43.7452L198.648 43.8977ZM201.443 44.3409V45.3409L201.6 43.3532L201.443 44.3409ZM182.455 44.3409L181.469 44.171L181.267 45.3409H182.455V44.3409ZM184.159 34.4545V33.4545H183.317L183.174 34.2846L184.159 34.4545ZM212.489 34.4545L213.474 34.6228L213.674 33.4545H212.489V34.4545ZM211.057 42.8409L210.071 42.6726L210.07 42.6801L211.057 42.8409ZM204.682 58.3864L203.882 57.7864L203.881 57.787L204.682 58.3864ZM192.511 68.4432L192.947 69.3434L192.948 69.3426L192.511 68.4432ZM160.398 67.625L159.843 68.4571L159.848 68.4604L160.398 67.625ZM151.125 55.25L150.178 55.571L150.178 55.5723L151.125 55.25ZM150.239 36.1591L151.225 36.3235L151.226 36.3183L150.239 36.1591ZM155.08 21.0568L154.195 20.5898L154.193 20.5933L155.08 21.0568ZM163.67 9.77272L164.345 10.5113L164.345 10.5111L163.67 9.77272ZM175.023 2.68182L175.384 3.61412L175.389 3.61238L175.023 2.68182ZM198.614 1.93182L198.275 2.87281L198.281 2.87493L198.614 1.93182ZM206.727 6.70455L206.051 7.44078L206.054 7.44415L206.727 6.70455ZM211.943 14.0682L212.864 13.6778L212.864 13.6778L211.943 14.0682ZM213.648 23.4773V24.4773H214.628L214.648 23.4971L213.648 23.4773ZM201.752 23.3427C201.491 21.421 201.014 19.6773 200.309 18.1214L198.487 18.9468C199.1 20.3 199.531 21.8517 199.77 23.6118L201.752 23.3427ZM200.311 18.1267C199.6 16.5335 198.636 15.169 197.415 14.0476L196.062 15.5206C197.068 16.4446 197.877 17.5801 198.484 18.9415L200.311 18.1267ZM197.423 14.055C196.196 12.9032 194.717 12.0385 193.006 11.4518L192.357 13.3437C193.828 13.8478 195.054 14.5741 196.054 15.5132L197.423 14.055ZM193.006 11.4518C191.288 10.8627 189.322 10.5795 187.125 10.5795V12.5795C189.155 12.5795 190.894 12.8418 192.357 13.3437L193.006 11.4518ZM187.125 10.5795C183.199 10.5795 179.474 11.5692 175.965 13.5369L176.944 15.2813C180.162 13.4762 183.551 12.5795 187.125 12.5795V10.5795ZM175.965 13.5369C172.443 15.5121 169.455 18.4049 166.992 22.181L168.667 23.2735C170.977 19.7315 173.739 17.0788 176.944 15.2813L175.965 13.5369ZM166.993 22.1786C164.516 25.9542 162.849 30.5241 161.968 35.8597L163.941 36.1857C164.787 31.0668 166.371 26.7731 168.666 23.2759L166.993 22.1786ZM161.968 35.8611C161.09 41.2188 161.122 45.8349 162.123 49.6729L164.059 49.168C163.151 45.6878 163.092 41.3721 163.941 36.1844L161.968 35.8611ZM162.123 49.6729C163.124 53.5079 164.982 56.5035 167.741 58.5727L168.941 56.9727C166.609 55.2237 164.967 52.6511 164.059 49.168L162.123 49.6729ZM167.749 58.5787C170.524 60.6167 173.971 61.6023 178.023 61.6023V59.6023C174.302 59.6023 171.295 58.7015 168.933 56.9668L167.749 58.5787ZM178.023 61.6023C181.721 61.6023 185.107 60.8948 188.163 59.4623L187.314 57.6514C184.552 58.9461 181.461 59.6023 178.023 59.6023V61.6023ZM188.163 59.4623C191.215 58.0319 193.752 55.9989 195.761 53.3683L194.171 52.1545C192.362 54.5238 190.081 56.3545 187.314 57.6514L188.163 59.4623ZM195.76 53.3693C197.802 50.7032 199.09 47.589 199.636 44.0503L197.659 43.7452C197.16 46.9792 195.994 49.7741 194.172 52.1534L195.76 53.3693ZM198.491 44.8854L201.287 45.3286L201.6 43.3532L198.804 42.9101L198.491 44.8854ZM201.443 43.3409H182.455V45.3409H201.443V43.3409ZM183.44 44.5108L185.145 34.6245L183.174 34.2846L181.469 44.171L183.44 44.5108ZM184.159 35.4545H212.489V33.4545H184.159V35.4545ZM211.503 34.2862L210.071 42.6726L212.043 43.0092L213.474 34.6228L211.503 34.2862ZM210.07 42.6801C209.115 48.5393 207.047 53.5661 203.882 57.7864L205.482 58.9864C208.862 54.4793 211.044 49.1425 212.044 43.0017L210.07 42.6801ZM203.881 57.787C200.727 62.0008 196.794 65.25 192.074 67.5438L192.948 69.3426C197.956 66.9091 202.137 63.4538 205.482 58.9857L203.881 57.787ZM192.076 67.5429C187.381 69.8134 182.224 70.9545 176.591 70.9545V72.9545C182.503 72.9545 187.96 71.7547 192.947 69.3434L192.076 67.5429ZM176.591 70.9545C170.334 70.9545 165.138 69.547 160.947 66.7896L159.848 68.4604C164.43 71.4758 170.03 72.9545 176.591 72.9545V70.9545ZM160.952 66.7929C156.786 64.0155 153.825 60.077 152.072 54.9277L150.178 55.5723C152.062 61.1048 155.282 65.4163 159.843 68.4571L160.952 66.7929ZM152.072 54.929C150.321 49.7632 150.017 43.5744 151.225 36.3235L149.252 35.9947C148.006 43.471 148.293 50.0095 150.178 55.571L152.072 54.929ZM151.226 36.3183C152.12 30.7734 153.704 25.8444 155.966 21.5203L154.193 20.5933C151.819 25.1329 150.175 30.2721 149.251 35.9999L151.226 36.3183ZM155.964 21.5239C158.256 17.1845 161.051 13.5176 164.345 10.5113L162.996 9.03413C159.517 12.2097 156.585 16.0655 154.195 20.5898L155.964 21.5239ZM164.345 10.5111C167.666 7.47792 171.345 5.18144 175.384 3.61411L174.661 1.74952C170.383 3.40947 166.493 5.84025 162.996 9.03435L164.345 10.5111ZM175.389 3.61238C179.429 2.02292 183.668 1.22727 188.114 1.22727V-0.77273C183.423 -0.77273 178.935 0.0679816 174.657 1.75125L175.389 3.61238ZM188.114 1.22727C191.856 1.22727 195.239 1.78067 198.275 2.87279L198.952 0.990842C195.67 -0.189765 192.054 -0.77273 188.114 -0.77273V1.22727ZM198.281 2.87493C201.325 3.94795 203.909 5.47258 206.051 7.44077L207.404 5.96832C205.045 3.80015 202.22 2.14296 198.946 0.988701L198.281 2.87493ZM206.054 7.44415C208.22 9.41474 209.874 11.75 211.023 14.4585L212.864 13.6778C211.603 10.7046 209.78 8.13071 207.4 5.96494L206.054 7.44415ZM211.023 14.4585C212.166 17.1559 212.714 20.1505 212.648 23.4574L214.648 23.4971C214.718 19.9404 214.129 16.6623 212.864 13.6778L211.023 14.4585ZM213.648 22.4773H200.761V24.4773H213.648V22.4773ZM218.616 71L217.63 70.8362L217.437 72H218.616V71ZM230.207 1.18182V0.181816H229.36L229.221 1.01804L230.207 1.18182ZM275.616 1.18182L276.603 1.34673L276.798 0.181816H275.616V1.18182ZM273.844 11.7841V12.7841H274.69L274.83 11.949L273.844 11.7841ZM241.082 11.7841V10.7841H240.234L240.096 11.6208L241.082 11.7841ZM237.946 30.7386L236.959 30.5754L236.767 31.7386H237.946V30.7386ZM268.355 30.7386L269.341 30.9035L269.536 29.7386H268.355V30.7386ZM266.582 41.3409V42.3409H267.429L267.569 41.5058L266.582 41.3409ZM236.173 41.3409V40.3409H235.324L235.187 41.1785L236.173 41.3409ZM233.037 60.3977L232.05 60.2353L231.859 61.3977H233.037V60.3977ZM266.071 60.3977L267.057 60.5626L267.252 59.3977H266.071V60.3977ZM264.298 71V72H265.145L265.285 71.1649L264.298 71ZM219.603 71.1638L231.194 1.34559L229.221 1.01804L217.63 70.8362L219.603 71.1638ZM230.207 2.18182H275.616V0.181816H230.207V2.18182ZM274.63 1.0169L272.857 11.6192L274.83 11.949L276.603 1.34673L274.63 1.0169ZM273.844 10.7841H241.082V12.7841H273.844V10.7841ZM240.096 11.6208L236.959 30.5754L238.933 30.9019L242.069 11.9473L240.096 11.6208ZM237.946 31.7386H268.355V29.7386H237.946V31.7386ZM267.369 30.5737L265.596 41.176L267.569 41.5058L269.341 30.9035L267.369 30.5737ZM266.582 40.3409H236.173V42.3409H266.582V40.3409ZM235.187 41.1785L232.05 60.2353L234.024 60.5601L237.16 41.5033L235.187 41.1785ZM233.037 61.3977H266.071V59.3977H233.037V61.3977ZM265.085 60.2328L263.312 70.8351L265.285 71.1649L267.057 60.5626L265.085 60.2328ZM264.298 70H218.616V72H264.298V70ZM276.929 71L275.942 70.8362L275.749 72H276.929V71ZM288.52 1.18182V0.181816H287.672L287.533 1.01804L288.52 1.18182ZM301.168 1.18182L302.154 1.34539L302.347 0.181816H301.168V1.18182ZM291.349 60.3977L290.363 60.2342L290.17 61.3977H291.349V60.3977ZM322.099 60.3977L323.086 60.5626L323.281 59.3977H322.099V60.3977ZM320.327 71V72H321.173L321.313 71.1649L320.327 71ZM277.915 71.1638L289.506 1.34559L287.533 1.01804L275.942 70.8362L277.915 71.1638ZM288.52 2.18182H301.168V0.181816H288.52V2.18182ZM300.181 1.01825L290.363 60.2342L292.336 60.5613L302.154 1.34539L300.181 1.01825ZM291.349 61.3977H322.099V59.3977H291.349V61.3977ZM321.113 60.2328L319.34 70.8351L321.313 71.1649L323.086 60.5626L321.113 60.2328ZM320.327 70H276.929V72H320.327V70ZM342.895 71V72H343.512L343.788 71.449L342.895 71ZM329.395 71L328.507 70.54L327.751 72H329.395V71ZM365.565 1.18182V0.181816H364.957L364.677 0.721815L365.565 1.18182ZM381.179 1.18182L382.162 0.998455L382.01 0.181816H381.179V1.18182ZM394.202 71V72H395.405L395.185 70.8166L394.202 71ZM380.702 71L379.716 71.1666L379.856 72H380.702V71ZM371.327 15.5L372.313 15.3334L372.172 14.5H371.327V15.5ZM370.781 15.5V14.5H370.165L369.888 15.051L370.781 15.5ZM347.872 43.625V42.625H347.026L346.886 43.4595L347.872 43.625ZM384.69 43.625L385.677 43.7905L385.872 42.625H384.69V43.625ZM382.986 53.7841V54.7841H383.832L383.972 53.9496L382.986 53.7841ZM346.168 53.7841L345.181 53.6186L344.986 54.7841H346.168V53.7841ZM342.895 70H329.395V72H342.895V70ZM330.283 71.46L366.453 1.64182L364.677 0.721815L328.507 70.54L330.283 71.46ZM365.565 2.18182H381.179V0.181816H365.565V2.18182ZM380.196 1.36518L393.219 71.1834L395.185 70.8166L382.162 0.998455L380.196 1.36518ZM394.202 70H380.702V72H394.202V70ZM381.688 70.8334L372.313 15.3334L370.341 15.6666L379.716 71.1666L381.688 70.8334ZM371.327 14.5H370.781V16.5H371.327V14.5ZM369.888 15.051L342.001 70.551L343.788 71.449L371.675 15.949L369.888 15.051ZM347.872 44.625H384.69V42.625H347.872V44.625ZM383.704 43.4595L382 53.6186L383.972 53.9496L385.677 43.7905L383.704 43.4595ZM382.986 52.7841H346.168V54.7841H382.986V52.7841ZM347.154 53.9496L348.858 43.7905L346.886 43.4595L345.181 53.6186L347.154 53.9496ZM496.176 1.18182L497.163 1.34559L497.356 0.181816H496.176V1.18182ZM484.585 71V72H485.433L485.572 71.1638L484.585 71ZM473.335 71L472.45 71.4651L472.731 72H473.335V71ZM448.347 23.4432L449.232 22.978L448.951 22.4432H448.347V23.4432ZM447.801 23.4432V22.4432H446.954L446.815 23.2784L447.801 23.4432ZM439.858 71V72H440.705L440.844 71.1647L439.858 71ZM427.21 71L426.224 70.8362L426.031 72H427.21V71ZM438.801 1.18182V0.181816H437.953L437.815 1.01804L438.801 1.18182ZM450.119 1.18182L451.005 0.71743L450.724 0.181816H450.119V1.18182ZM475.074 48.7727L474.188 49.2371L474.469 49.7727H475.074V48.7727ZM475.722 48.7727V49.7727H476.57L476.708 48.936L475.722 48.7727ZM483.597 1.18182V0.181816H482.748L482.61 1.01856L483.597 1.18182ZM495.19 1.01804L483.599 70.8362L485.572 71.1638L497.163 1.34559L495.19 1.01804ZM484.585 70H473.335V72H484.585V70ZM474.22 70.5349L449.232 22.978L447.461 23.9083L472.45 71.4651L474.22 70.5349ZM448.347 22.4432H447.801V24.4432H448.347V22.4432ZM446.815 23.2784L438.872 70.8353L440.844 71.1647L448.787 23.6079L446.815 23.2784ZM439.858 70H427.21V72H439.858V70ZM428.197 71.1638L439.788 1.34559L437.815 1.01804L426.224 70.8362L428.197 71.1638ZM438.801 2.18182H450.119V0.181816H438.801V2.18182ZM449.234 1.6462L474.188 49.2371L475.96 48.3083L451.005 0.71743L449.234 1.6462ZM475.074 49.7727H475.722V47.7727H475.074V49.7727ZM476.708 48.936L484.583 1.34507L482.61 1.01856L474.735 48.6095L476.708 48.936ZM483.597 2.18182H496.176V0.181816H483.597V2.18182ZM498.366 71L497.38 70.8362L497.187 72H498.366V71ZM509.957 1.18182V0.181816H509.11L508.971 1.01804L509.957 1.18182ZM522.605 1.18182L523.592 1.34434L523.783 0.181816H522.605V1.18182ZM517.321 33.2614L516.334 33.0988L516.143 34.2614H517.321V33.2614ZM518.173 33.2614V34.2614H518.583L518.876 33.9733L518.173 33.2614ZM550.696 1.18182V0.181816H550.286L549.994 0.469875L550.696 1.18182ZM566.139 1.18182L566.837 1.89798L568.598 0.181816H566.139V1.18182ZM533.991 32.5114L533.294 31.7952L532.753 32.3223L533.112 32.9867L533.991 32.5114ZM554.787 71V72H556.464L555.667 70.5246L554.787 71ZM539.582 71L538.697 71.4657L538.979 72H539.582V71ZM523.832 41.0682L524.717 40.6025L524.09 39.4104L523.13 40.3559L523.832 41.0682ZM514.491 50.2727L513.79 49.5604L513.559 49.7878L513.505 50.1073L514.491 50.2727ZM511.014 71V72H511.86L512 71.1655L511.014 71ZM499.353 71.1638L510.944 1.34559L508.971 1.01804L497.38 70.8362L499.353 71.1638ZM509.957 2.18182H522.605V0.181816H509.957V2.18182ZM521.618 1.01929L516.334 33.0988L518.308 33.4239L523.592 1.34434L521.618 1.01929ZM517.321 34.2614H518.173V32.2614H517.321V34.2614ZM518.876 33.9733L551.398 1.89376L549.994 0.469875L517.471 32.5494L518.876 33.9733ZM550.696 2.18182H566.139V0.181816H550.696V2.18182ZM565.441 0.465655L533.294 31.7952L534.689 33.2275L566.837 1.89798L565.441 0.465655ZM533.112 32.9867L553.907 71.4754L555.667 70.5246L534.871 32.036L533.112 32.9867ZM554.787 70H539.582V72H554.787V70ZM540.467 70.5343L524.717 40.6025L522.947 41.5338L538.697 71.4657L540.467 70.5343ZM523.13 40.3559L513.79 49.5604L515.193 50.985L524.534 41.7805L523.13 40.3559ZM513.505 50.1073L510.028 70.8345L512 71.1655L515.478 50.4382L513.505 50.1073ZM511.014 70H498.366V72H511.014V70ZM627.631 36.9091L626.644 36.7452L626.644 36.7457L627.631 36.9091ZM620.369 55.8636L619.547 55.295L619.546 55.2957L620.369 55.8636ZM607.21 67.8295L607.681 68.712L607.682 68.7113L607.21 67.8295ZM574.449 67.5909L573.901 68.4275L573.904 68.4294L574.449 67.5909ZM564.767 55.0114L563.826 55.3487L563.827 55.3522L564.767 55.0114ZM563.744 35.375L564.731 35.5394L564.731 35.5389L563.744 35.375ZM570.972 16.4205L571.797 16.985L571.797 16.985L570.972 16.4205ZM584.165 4.38636L583.695 3.5038L583.695 3.5038L584.165 4.38636ZM616.96 4.625L616.408 5.45903L616.413 5.46227L616.96 4.625ZM626.574 17.2045L625.632 17.5406L625.633 17.5441L626.574 17.2045ZM615.188 35.375L616.174 35.5367L616.174 35.5359L615.188 35.375ZM614.949 22.3182L613.985 22.5839L613.986 22.5896L614.949 22.3182ZM609.733 14.3068L609.145 15.1156L609.15 15.119L609.733 14.3068ZM589.517 14.5455L590.022 15.4086L590.024 15.4075L589.517 14.5455ZM580.994 23.1364L580.145 22.6091L580.142 22.6128L580.994 23.1364ZM576.222 36.9091L577.207 37.0819L577.208 37.0743L577.209 37.0668L576.222 36.9091ZM581.71 57.9432L581.13 58.7579L581.135 58.7614L581.71 57.9432ZM601.858 57.6705L601.353 56.8073L601.353 56.8073L601.858 57.6705ZM610.347 49.1136L609.498 48.5841L609.496 48.5878L610.347 49.1136ZM626.644 36.7457C625.437 44.0354 623.063 50.2091 619.547 55.295L621.192 56.4323C624.903 51.0636 627.37 44.6009 628.617 37.0725L626.644 36.7457ZM619.546 55.2957C616.039 60.3794 611.769 64.2559 606.738 66.9478L607.682 68.7113C613.015 65.8578 617.518 61.757 621.192 56.4315L619.546 55.2957ZM606.74 66.9471C601.728 69.6184 596.333 70.9545 590.54 70.9545V72.9545C596.655 72.9545 602.374 71.5407 607.681 68.712L606.74 66.9471ZM590.54 70.9545C584.45 70.9545 579.283 69.5391 574.994 66.7524L573.904 68.4294C578.57 71.4609 584.13 72.9545 590.54 72.9545V70.9545ZM574.997 66.7543C570.716 63.9511 567.617 59.9399 565.707 54.6706L563.827 55.3522C565.871 60.9919 569.227 65.3671 573.901 68.4275L574.997 66.7543ZM565.708 54.674C563.828 49.4252 563.477 43.0619 564.731 35.5394L562.758 35.2106C561.466 42.9608 561.797 49.6884 563.826 55.3487L565.708 54.674ZM564.731 35.5389C565.938 28.271 568.302 22.0953 571.797 16.985L570.146 15.8559C566.46 21.2456 564.005 27.7063 562.758 35.2111L564.731 35.5389ZM571.797 16.985C575.304 11.8574 579.584 7.95996 584.635 5.26893L583.695 3.5038C578.337 6.35822 573.821 10.4835 570.146 15.8559L571.797 16.985ZM584.635 5.26893C589.692 2.575 595.143 1.22727 601.006 1.22727V-0.77273C594.823 -0.77273 589.047 0.65227 583.695 3.5038L584.635 5.26893ZM601.006 1.22727C607.048 1.22727 612.166 2.65263 616.408 5.45902L617.512 3.79098C612.891 0.733727 607.373 -0.77273 601.006 -0.77273V1.22727ZM616.413 5.46227C620.668 8.24066 623.744 12.2488 625.632 17.5406L627.516 16.8685C625.495 11.2057 622.162 6.82751 617.507 3.78773L616.413 5.46227ZM625.633 17.5441C627.536 22.8154 627.898 29.2007 626.644 36.7452L628.617 37.073C629.909 29.2993 629.566 22.5483 627.514 16.865L625.633 17.5441ZM616.174 35.5359C617.03 30.2888 616.964 25.7788 615.911 22.0467L613.986 22.5896C614.934 25.9484 615.027 30.143 614.201 35.2141L616.174 35.5359ZM615.913 22.0524C614.887 18.3313 613.036 15.4481 610.316 13.4946L609.15 15.119C611.43 16.7565 613.056 19.2142 613.985 22.5839L615.913 22.0524ZM610.321 13.4981C607.621 11.534 604.325 10.5795 600.494 10.5795V12.5795C603.982 12.5795 606.845 13.4433 609.145 15.1156L610.321 13.4981ZM600.494 10.5795C596.364 10.5795 592.53 11.6145 589.01 13.6834L590.024 15.4075C593.232 13.5218 596.715 12.5795 600.494 12.5795V10.5795ZM589.012 13.6823C585.511 15.7305 582.559 18.7185 580.145 22.6091L581.844 23.6636C584.112 20.0087 586.841 17.2695 590.022 15.4086L589.012 13.6823ZM580.142 22.6128C577.741 26.5206 576.114 31.2424 575.234 36.7514L577.209 37.0668C578.057 31.7575 579.611 27.2976 581.846 23.6599L580.142 22.6128ZM575.237 36.7363C574.312 42.0078 574.352 46.5258 575.432 50.2447L577.352 49.6871C576.387 46.3606 576.313 42.174 577.207 37.0819L575.237 36.7363ZM575.432 50.2447C576.505 53.9423 578.392 56.8087 581.13 58.7579L582.29 57.1285C579.983 55.4867 578.324 53.035 577.352 49.6871L575.432 50.2447ZM581.135 58.7614C583.855 60.6725 587.145 61.6023 590.949 61.6023V59.6023C587.48 59.6023 584.611 58.7593 582.285 57.125L581.135 58.7614ZM590.949 61.6023C595.055 61.6023 598.866 60.5792 602.363 58.5336L601.353 56.8073C598.168 58.6708 594.706 59.6023 590.949 59.6023V61.6023ZM602.363 58.5336C605.863 56.4857 608.805 53.5089 611.197 49.6395L609.496 48.5878C607.252 52.2183 604.534 54.9461 601.353 56.8073L602.363 58.5336ZM611.195 49.6432C613.62 45.7575 615.272 41.046 616.174 35.5367L614.201 35.2133C613.331 40.5222 611.755 44.9698 609.498 48.5841L611.195 49.6432ZM680.19 20.7159L679.191 20.6871L679.161 21.7159H680.19V20.7159ZM677.293 13.4545L676.649 14.2199L676.653 14.2235L677.293 13.4545ZM661.679 12.125L662.039 13.0578L662.045 13.0556L661.679 12.125ZM656.838 15.3636L657.581 16.0326L657.587 16.0265L656.838 15.3636ZM654.554 20.0341L655.539 20.2061L655.54 20.2006L654.554 20.0341ZM654.929 23.7841L655.835 23.3601L655.835 23.3601L654.929 23.7841ZM657.213 26.5114L656.622 27.3178L656.63 27.3239L657.213 26.5114ZM660.759 28.3864L660.404 29.3214L660.409 29.3233L660.759 28.3864ZM664.849 29.6477L665.102 28.68L665.088 28.6767L664.849 29.6477ZM671.122 31.2841L670.87 32.2517L670.877 32.2535L670.884 32.2553L671.122 31.2841ZM678.281 33.7727L677.863 34.6812L677.871 34.6846L678.281 33.7727ZM684.179 37.7273L683.482 38.4442L683.492 38.4537L684.179 37.7273ZM688.236 51.3977L687.25 51.2273L687.249 51.2333L688.236 51.3977ZM683.293 62.2045L682.527 61.5616L682.526 61.5621L683.293 62.2045ZM673.065 69.4659L673.445 70.3909L673.448 70.3899L673.065 69.4659ZM644.668 69.5341L644.252 70.4435L644.256 70.4456L644.668 69.5341ZM636.486 62.1364L635.602 62.6034L635.604 62.6082L636.486 62.1364ZM634.849 50.375V49.375H633.974L633.858 50.2432L634.849 50.375ZM647.293 50.375L648.287 50.4773L648.401 49.375H647.293V50.375ZM648.486 56.4432L647.647 56.9869L647.652 56.9952L648.486 56.4432ZM653.088 60.0568L653.458 59.1276L653.458 59.1276L653.088 60.0568ZM667.509 60.0227L667.853 60.9614L667.862 60.9583L667.509 60.0227ZM672.963 56.5455L672.24 55.855L672.239 55.8552L672.963 56.5455ZM675.588 51.2955L674.603 51.121L674.602 51.1296L674.6 51.1383L675.588 51.2955ZM674.804 46.7955L675.624 46.223L675.624 46.223L674.804 46.7955ZM670.884 43.7955L670.46 44.7013L670.467 44.7046L670.474 44.7078L670.884 43.7955ZM664.611 41.6136L664.35 42.579L664.358 42.5811L664.611 41.6136ZM657.043 39.5682L656.778 40.5327L656.782 40.5335L657.043 39.5682ZM644.565 32.8182L643.836 33.5029L643.839 33.5058L644.565 32.8182ZM641.565 20.8182L640.579 20.6555L640.578 20.6567L641.565 20.8182ZM646.713 10.0114L647.458 10.6788L647.46 10.6761L646.713 10.0114ZM657.043 2.81818L657.424 3.74276L657.428 3.74095L657.043 2.81818ZM683.19 2.81818L682.741 3.71142L682.743 3.71261L683.19 2.81818ZM690.759 10.0455L689.869 10.5031L689.873 10.5109L690.759 10.0455ZM692.361 20.7159V21.7159H693.235L693.352 20.8495L692.361 20.7159ZM681.19 20.7447C681.288 17.3474 680.239 14.6041 677.932 12.6856L676.653 14.2235C678.391 15.6686 679.275 17.7662 679.191 20.6871L681.19 20.7447ZM677.936 12.6892C675.692 10.8017 672.553 9.93182 668.668 9.93182V11.9318C672.283 11.9318 674.894 12.7437 676.649 14.2199L677.936 12.6892ZM668.668 9.93182C665.932 9.93182 663.474 10.3445 661.313 11.1944L662.045 13.0556C663.929 12.3146 666.131 11.9318 668.668 11.9318V9.93182ZM661.319 11.1922C659.193 12.0134 657.438 13.177 656.089 14.7008L657.587 16.0265C658.692 14.7775 660.165 13.782 662.039 13.0578L661.319 11.1922ZM656.095 14.6947C654.745 16.1944 653.896 17.9239 653.568 19.8676L655.54 20.2006C655.803 18.6442 656.477 17.2602 657.581 16.0326L656.095 14.6947ZM653.569 19.8621C653.292 21.4485 653.418 22.9147 654.023 24.208L655.835 23.3601C655.44 22.5171 655.316 21.4833 655.539 20.2061L653.569 19.8621ZM654.023 24.208C654.6 25.4394 655.474 26.4763 656.622 27.3178L657.804 25.705C656.906 25.0464 656.258 24.2652 655.835 23.3601L654.023 24.208ZM656.63 27.3239C657.752 28.129 659.012 28.7935 660.404 29.3214L661.113 27.4514C659.868 26.9792 658.765 26.3937 657.796 25.6988L656.63 27.3239ZM660.409 29.3233C661.786 29.8368 663.187 30.2686 664.611 30.6188L665.088 28.6767C663.739 28.345 662.413 27.9359 661.108 27.4494L660.409 29.3233ZM664.597 30.6153L670.87 32.2517L671.375 30.3165L665.102 28.6801L664.597 30.6153ZM670.884 32.2553C673.324 32.8542 675.65 33.6631 677.863 34.6812L678.699 32.8642C676.367 31.7915 673.92 30.9413 671.361 30.3129L670.884 32.2553ZM677.871 34.6846C680.046 35.6632 681.912 36.9178 683.482 38.4441L684.876 37.0104C683.127 35.3095 681.062 33.9277 678.692 32.8608L677.871 34.6846ZM683.492 38.4537C685.053 39.9305 686.193 41.7119 686.915 43.8134L688.807 43.1638C687.983 40.7654 686.669 38.7059 684.866 37.0008L683.492 38.4537ZM686.915 43.8134C687.62 45.8648 687.753 48.3236 687.25 51.2273L689.221 51.5681C689.764 48.4264 689.648 45.6125 688.807 43.1638L686.915 43.8134ZM687.249 51.2333C686.596 55.1516 685.023 58.5878 682.527 61.5616L684.059 62.8475C686.79 59.594 688.512 55.8256 689.222 51.5621L687.249 51.2333ZM682.526 61.5621C680.052 64.5139 676.782 66.8452 672.683 68.542L673.448 70.3899C677.804 68.5866 681.351 66.077 684.059 62.8469L682.526 61.5621ZM672.685 68.5409C668.626 70.2087 663.862 71.0568 658.372 71.0568V73.0568C664.064 73.0568 669.096 72.1777 673.445 70.3909L672.685 68.5409ZM658.372 71.0568C653.061 71.0568 648.642 70.2305 645.079 68.6226L644.256 70.4456C648.147 72.2013 652.865 73.0568 658.372 73.0568V71.0568ZM645.084 68.6247C641.53 66.9997 638.979 64.6759 637.367 61.6645L635.604 62.6082C637.447 66.0513 640.351 68.6594 644.252 70.4435L645.084 68.6247ZM637.37 61.6693C635.786 58.6706 635.247 54.9714 635.841 50.5068L633.858 50.2432C633.225 55.0059 633.776 59.1476 635.602 62.6034L637.37 61.6693ZM634.849 51.375H647.293V49.375H634.849V51.375ZM646.298 50.2727C646.031 52.8686 646.447 55.1351 647.647 56.9869L649.325 55.8994C648.434 54.524 648.054 52.745 648.287 50.4773L646.298 50.2727ZM647.652 56.9952C648.845 58.7979 650.551 60.124 652.718 60.986L653.458 59.1276C651.625 58.3988 650.263 57.3158 649.32 55.8912L647.652 56.9952ZM652.718 60.986C654.859 61.8375 657.307 62.25 660.043 62.25V60.25C657.505 60.25 655.317 59.8671 653.458 59.1276L652.718 60.986ZM660.043 62.25C662.892 62.25 665.5 61.826 667.853 60.9614L667.164 59.0841C665.063 59.8558 662.693 60.25 660.043 60.25V62.25ZM667.862 60.9583C670.206 60.0732 672.158 58.8381 673.687 57.2357L672.239 55.8552C670.95 57.2074 669.265 58.2905 667.155 59.0872L667.862 60.9583ZM673.686 57.2359C675.255 55.5928 676.225 53.6581 676.576 51.4526L674.6 51.1383C674.315 52.9328 673.535 54.4981 672.24 55.855L673.686 57.2359ZM676.573 51.47C676.925 49.4802 676.651 47.6947 675.624 46.223L673.984 47.3679C674.638 48.3053 674.887 49.5198 674.603 51.121L676.573 51.47ZM675.624 46.223C674.651 44.8296 673.179 43.7294 671.293 42.8831L670.474 44.7078C672.134 45.4524 673.275 46.3522 673.984 47.3679L675.624 46.223ZM671.307 42.8896C669.489 42.0395 667.338 41.2936 664.864 40.6462L664.358 42.5811C666.747 43.2064 668.778 43.9151 670.46 44.7013L671.307 42.8896ZM664.872 40.6483L657.304 38.6028L656.782 40.5335L664.35 42.579L664.872 40.6483ZM657.307 38.6037C651.942 37.1346 647.968 34.957 645.291 32.1306L643.839 33.5058C646.845 36.6794 651.188 39.0017 656.778 40.5327L657.307 38.6037ZM645.294 32.1335C642.738 29.4125 641.771 25.7515 642.552 20.9797L640.578 20.6567C639.723 25.8849 640.756 30.2239 643.836 33.5029L645.294 32.1335ZM642.552 20.9808C643.203 17.0289 644.837 13.6026 647.458 10.6788L645.968 9.34392C643.089 12.5565 641.291 16.3348 640.579 20.6555L642.552 20.9808ZM647.46 10.6761C650.101 7.70744 653.416 5.39433 657.424 3.74275L656.662 1.89361C652.397 3.65112 648.825 6.13347 645.966 9.34666L647.46 10.6761ZM657.428 3.74095C661.431 2.06932 665.821 1.22727 670.611 1.22727V-0.77273C665.582 -0.77273 660.927 0.112493 656.657 1.8954L657.428 3.74095ZM670.611 1.22727C675.453 1.22727 679.483 2.07167 682.741 3.71142L683.64 1.92494C680.034 0.110142 675.678 -0.77273 670.611 -0.77273V1.22727ZM682.743 3.71261C686.03 5.35597 688.386 7.62189 689.869 10.5031L691.648 9.58781C689.949 6.2872 687.26 3.73493 683.638 1.92375L682.743 3.71261ZM689.873 10.5109C691.374 13.3643 691.893 16.7051 691.37 20.5823L693.352 20.8495C693.92 16.6358 693.37 12.8629 691.644 9.57998L689.873 10.5109ZM692.361 19.7159H680.19V21.7159H692.361V19.7159ZM720.511 1.18182L721.498 1.34559L721.691 0.181816H720.511V1.18182ZM708.92 71V72H709.768L709.907 71.1638L708.92 71ZM696.273 71L695.286 70.8362L695.093 72H696.273V71ZM707.864 1.18182V0.181816H707.016L706.877 1.01804L707.864 1.18182ZM719.525 1.01804L707.934 70.8362L709.907 71.1638L721.498 1.34559L719.525 1.01804ZM708.92 70H696.273V72H708.92V70ZM697.259 71.1638L708.85 1.34559L706.877 1.01804L695.286 70.8362L697.259 71.1638ZM707.864 2.18182H720.511V0.181816H707.864V2.18182Z" fill="black"/>
</svg>
